<svg width="40" height="40" viewBox="0 0 40 40" fill="none" xmlns="http://www.w3.org/2000/svg">
<path fill-rule="evenodd" clip-rule="evenodd" d="M20.5 5C27.9438 5 34 10.7369 34 17.7892C34 26.4585 23.4356 35 20.5 35C17.5644 35 7 26.4585 7 17.7892C7 10.7369 13.0562 5 20.5 5ZM20.5 7.30769C14.4095 7.30769 9.45455 12.0108 9.45455 17.7892C9.45455 25.1415 18.6575 32.3046 20.5 32.6862C22.3425 32.3031 31.5455 25.14 31.5455 17.7892C31.5455 12.0108 26.5905 7.30769 20.5 7.30769ZM20.5016 12.6923C23.434 12.6923 25.8198 14.9354 25.8198 17.6938C25.8198 20.4508 23.434 22.6923 20.5016 22.6923C17.5693 22.6923 15.1835 20.4508 15.1835 17.6938C15.1835 14.9354 17.5693 12.6923 20.5016 12.6923ZM20.5016 15C18.9225 15 17.638 16.2077 17.638 17.6938C17.638 19.1785 18.9225 20.3846 20.5016 20.3846C22.0807 20.3846 23.3653 19.1785 23.3653 17.6938C23.3653 16.2077 22.0807 15 20.5016 15Z" fill="#637A79"/>
</svg>
